<svg version="1.1" id="Capa_1" xmlns="http://www.w3.org/2000/svg" xmlns:xlink="http://www.w3.org/1999/xlink" x="0px" y="0px" viewBox="0 0 66.2 91.6" style="enable-background:new 0 0 66.2 91.6;" xml:space="preserve">
 <style type="text/css">
  .st0{fill:#FFFFFF;}
	.st1{fill:#E62644;}
	.st2{fill:#FCBF00;}
	.st3{fill:#004996;}
 </style>
 <g>
  <path class="st0" d="M46.2,26.6c-0.4,0-0.7-0.3-0.7-0.7c0-0.4,0.3-0.7,0.7-0.7c0.4,0,0.7,0.3,0.7,0.7
		C46.9,26.2,46.6,26.6,46.2,26.6z M5.1,58.7c0-15.4,12.6-27.8,28-27.8s28,12.5,28,27.8c0,15.3-12.6,27.8-28,27.8S5.1,74,5.1,58.7z
		 M44.1,16.2c0.7,0.2,1.1,0.8,0.9,1.5c-0.2,0.7-0.8,1.1-1.5,0.9c-0.7-0.2-1.1-0.8-0.9-1.5C42.8,16.4,43.4,16,44.1,16.2z M45.2,13.7
		c0.4,0,0.7,0.3,0.7,0.7c0,0.4-0.3,0.7-0.7,0.7s-0.7-0.3-0.7-0.7C44.5,14,44.9,13.7,45.2,13.7z M44.7,11.2c0.4,0,0.7,0.3,0.7,0.7
		s-0.3,0.7-0.7,0.7S44,12.3,44,11.9S44.3,11.2,44.7,11.2z M53.3,17.8c0.4,0,0.7,0.3,0.7,0.7c0,0.4-0.3,0.7-0.7,0.7
		c-0.4,0-0.7-0.3-0.7-0.7S52.9,17.8,53.3,17.8z M52.7,15.3c0.4,0,0.7,0.3,0.7,0.7c0,0.4-0.3,0.7-0.7,0.7c-0.4,0-0.7-0.3-0.7-0.7
		C52,15.6,52.3,15.3,52.7,15.3z M51.7,13.1c0.4,0,0.7,0.3,0.7,0.7c0,0.4-0.3,0.7-0.7,0.7c-0.4,0-0.7-0.3-0.7-0.7
		C51,13.4,51.3,13.1,51.7,13.1z M50,11.2c0.4,0,0.7,0.3,0.7,0.7s-0.3,0.7-0.7,0.7c-0.4,0-0.7-0.3-0.7-0.7S49.6,11.2,50,11.2z
		 M48,9.7c0.4,0,0.7,0.3,0.7,0.7s-0.3,0.7-0.7,0.7s-0.7-0.3-0.7-0.7S47.6,9.7,48,9.7z M45.8,8.9c0.4,0,0.7,0.3,0.7,0.7
		s-0.3,0.7-0.7,0.7c-0.4,0-0.7-0.3-0.7-0.7S45.4,8.9,45.8,8.9z M43.6,9.1c0.4,0,0.7,0.3,0.7,0.7s-0.3,0.7-0.7,0.7s-0.7-0.3-0.7-0.7
		C42.9,9.4,43.2,9.1,43.6,9.1C43.6,9.1,43.6,9.1,43.6,9.1z M41.9,7.2c0.4,0,0.7,0.3,0.7,0.7c0,0.4-0.3,0.7-0.7,0.7
		c-0.4,0-0.7-0.3-0.7-0.7C41.2,7.5,41.6,7.2,41.9,7.2z M39.8,5.8c0.4,0,0.7,0.3,0.7,0.7s-0.3,0.7-0.7,0.7c-0.4,0-0.7-0.3-0.7-0.7
		S39.4,5.8,39.8,5.8z M37.6,5c0.4,0,0.7,0.3,0.7,0.7c0,0.4-0.3,0.7-0.7,0.7s-0.7-0.3-0.7-0.7C36.9,5.3,37.2,5,37.6,5z M35.3,4.6
		c0.4,0,0.7,0.3,0.7,0.7C36,5.7,35.7,6,35.3,6s-0.7-0.3-0.7-0.7C34.6,4.9,34.9,4.6,35.3,4.6z M13.8,22.8c-0.6,0.3-1.4,0.1-1.7-0.5
		c-0.3-0.6-0.1-1.4,0.5-1.7c0.6-0.3,1.4-0.1,1.7,0.5C14.6,21.7,14.4,22.4,13.8,22.8z M22.7,18.6c-0.7,0.2-1.3-0.2-1.5-0.9
		c-0.2-0.7,0.2-1.3,0.9-1.5s1.4,0.2,1.5,0.9C23.8,17.7,23.4,18.4,22.7,18.6z M33.1,17.3c-0.7,0-1.3-0.6-1.3-1.2
		c0-0.7,0.6-1.2,1.3-1.2c0.7,0,1.3,0.6,1.3,1.2C34.4,16.7,33.8,17.3,33.1,17.3z M21,15.1c-0.4,0-0.7-0.3-0.7-0.7
		c0-0.4,0.3-0.7,0.7-0.7s0.7,0.3,0.7,0.7C21.7,14.8,21.4,15.1,21,15.1z M21.6,12.6c-0.4,0-0.7-0.3-0.7-0.7s0.3-0.7,0.7-0.7
		s0.7,0.3,0.7,0.7S21.9,12.6,21.6,12.6z M12.9,19.2c-0.4,0-0.7-0.3-0.7-0.7c0-0.4,0.3-0.7,0.7-0.7c0.4,0,0.7,0.3,0.7,0.7
		S13.3,19.2,12.9,19.2z M13.5,16.7c-0.4,0-0.7-0.3-0.7-0.7c0-0.4,0.3-0.7,0.7-0.7c0.4,0,0.7,0.3,0.7,0.7
		C14.2,16.4,13.9,16.7,13.5,16.7z M14.5,14.5c-0.4,0-0.7-0.3-0.7-0.7s0.3-0.7,0.7-0.7c0.4,0,0.7,0.3,0.7,0.7S14.9,14.5,14.5,14.5z
		 M16.2,12.6c-0.4,0-0.7-0.3-0.7-0.7s0.3-0.7,0.7-0.7s0.7,0.3,0.7,0.7S16.6,12.6,16.2,12.6z M18.2,11.1c-0.4,0-0.7-0.3-0.7-0.7
		s0.3-0.7,0.7-0.7c0.4,0,0.7,0.3,0.7,0.7S18.6,11.1,18.2,11.1z M20.4,10.3c-0.4,0-0.7-0.3-0.7-0.7s0.3-0.7,0.7-0.7
		c0.4,0,0.7,0.3,0.7,0.7C21.1,10,20.8,10.3,20.4,10.3z M22.6,10.5c-0.4,0-0.7-0.3-0.7-0.7s0.3-0.7,0.7-0.7c0.4,0,0.7,0.3,0.7,0.7
		S23,10.5,22.6,10.5z M24.3,8.6c-0.4,0-0.7-0.3-0.7-0.7s0.3-0.7,0.7-0.7c0.4,0,0.7,0.3,0.7,0.7C25,8.3,24.7,8.6,24.3,8.6z M26.4,7.2
		c-0.4,0-0.7-0.3-0.7-0.7s0.3-0.7,0.7-0.7c0.4,0,0.7,0.3,0.7,0.7S26.8,7.2,26.4,7.2z M28.6,6.4c-0.4,0-0.7-0.3-0.7-0.7
		S28.2,5,28.6,5c0.4,0,0.7,0.3,0.7,0.7C29.3,6.1,29,6.4,28.6,6.4z M33.1,13.1c-0.4,0-0.7-0.3-0.7-0.7c0-0.4,0.3-0.7,0.7-0.7
		s0.7,0.3,0.7,0.7C33.8,12.8,33.5,13.1,33.1,13.1z M33.1,10.6c-0.4,0-0.7-0.3-0.7-0.7s0.3-0.7,0.7-0.7s0.7,0.3,0.7,0.7
		S33.5,10.6,33.1,10.6z M33.1,8.1c-0.4,0-0.7-0.3-0.7-0.7s0.3-0.7,0.7-0.7s0.7,0.3,0.7,0.7C33.8,7.8,33.5,8.1,33.1,8.1z M30.9,6
		c-0.4,0-0.7-0.3-0.7-0.7s0.3-0.7,0.7-0.7c0.4,0,0.7,0.3,0.7,0.7C31.6,5.7,31.3,6,30.9,6z M53.6,20.6c0.6,0.3,0.8,1.1,0.5,1.7
		c-0.3,0.6-1.1,0.8-1.7,0.5c-0.6-0.3-0.8-1.1-0.5-1.7C52.2,20.5,53,20.3,53.6,20.6z M37.6,24.2c-0.4,0-0.7-0.3-0.7-0.7
		s0.3-0.7,0.7-0.7c0.4,0,0.7,0.3,0.7,0.7C38.3,23.9,38,24.2,37.6,24.2z M20,26.6c-0.4,0-0.7-0.3-0.7-0.7c0-0.4,0.3-0.7,0.7-0.7
		c0.4,0,0.7,0.3,0.7,0.7C20.7,26.2,20.4,26.6,20,26.6z M28.6,24.2c-0.4,0-0.7-0.3-0.7-0.7s0.3-0.7,0.7-0.7c0.4,0,0.7,0.3,0.7,0.7
		C29.3,23.9,29,24.2,28.6,24.2z">
  </path>
  <path class="st1" d="M38.3,19.2c0.2,0.4,0.4,0.7,0.7,1c-0.6-0.1-1.3-0.2-1.9-0.2c0.4-0.2,0.7-0.5,0.9-0.8
		C38.1,19.2,38.2,19.2,38.3,19.2z M27.9,19.2c0.1,0,0.2,0,0.3,0c0.2,0.3,0.6,0.6,0.9,0.8c-0.6,0.1-1.3,0.1-1.9,0.2
		C27.5,20,27.8,19.6,27.9,19.2z M24.2,20.8c-0.6,0.1-1.1,0.3-1.7,0.4c0.3-0.4,0.5-0.8,0.5-1.3C23.4,20.3,23.8,20.6,24.2,20.8z
		 M17.8,22.9c0.2-0.3,0.3-0.6,0.4-0.9l0.1,0c0.2,0,0.3-0.1,0.5-0.2c0.3,0.2,0.6,0.3,0.9,0.4C19,22.4,18.4,22.7,17.8,22.9z
		 M33.1,18.7c0.2,0.5,0.5,0.9,0.9,1.2c-0.3,0-0.6,0-0.9,0s-0.6,0-0.9,0C32.6,19.5,32.9,19.1,33.1,18.7z M47.5,21.8
		c0.1,0.1,0.3,0.2,0.5,0.2l0.1,0c0.1,0.3,0.2,0.6,0.4,0.9c-0.6-0.2-1.2-0.5-1.8-0.7C46.9,22.1,47.2,22,47.5,21.8z M43.7,21.3
		c-0.5-0.1-1.1-0.3-1.7-0.4c0.4-0.2,0.8-0.5,1.1-0.9C43.2,20.4,43.4,20.9,43.7,21.3z M45.9,15.9c0.5-0.2,0.8-0.6,0.9-1.1
		c0.7,0.2,1.6,0.4,2.3,0.6c0.6,0.2,1.2,0.6,1.5,0.9c0.4,1,0.6,2.1,0.7,3.4c-0.5,0.2-0.7,0.7-0.9,1.1c-0.3,0.7-0.3,1.4,0.5,2
		c-0.7,0-1.3-0.5-1.3-1.1c0,0,0-0.1,0-0.1c0.1-0.2,0.2-0.4,0.3-0.6c0.2-0.8-0.3-1.7-1.1-1.9c-0.8-0.2-1.7,0.3-1.9,1.1l0,0
		c0,0.1,0,0.2,0,0.3c-0.7,0.9-2.1,0.4-2.2-0.7c1.3,0.3,1.9-0.4,2.1-1.3c0.2-0.7,0.1-1.5-0.7-1.9C46,16.3,45.9,16.1,45.9,15.9z">
  </path>
  <path class="st1" d="M23.7,12.8c2.5-1.4,5.7-1.6,8.3-1.2v0.2c-0.4,0.6-0.3,1.4,0.3,1.8c-0.5,0.2-0.8,0.5-1,1.1
		c-0.9,0.2-1.2,0.9-1.2,1.7c0,0.9,0.4,1.7,1.7,1.8c0.2,0.6-0.1,1.4-0.8,1.6c-0.6,0.2-1.4-0.1-1.6-0.8c-0.1-0.3-0.1-0.5,0-0.8
		c0.2-0.8-0.3-1.7-1.1-1.9c-0.1,0-0.3-0.1-0.4-0.1c-0.9,0-1.6,0.7-1.6,1.6c0,0.3,0.1,0.5,0.2,0.7c0,0.5-0.4,1-0.9,1.1
		c-0.5,0.1-1.1-0.1-1.4-0.5c1.3-0.4,1.4-1.2,1.2-2.1c-0.2-0.7-0.6-1.4-1.6-1.3c-0.1-0.3-0.4-0.5-0.7-0.7
		C23.3,14.1,23.4,13.4,23.7,12.8z M34.3,11.5c2.5-0.4,5.8-0.1,8.3,1.2c0.2,0.7,0.4,1.4,0.5,2.1c-0.3,0.1-0.5,0.4-0.7,0.7
		c-1,0-1.4,0.6-1.6,1.3c-0.2,0.9-0.1,1.7,1.2,2.1c0,0.7-0.5,1.3-1.2,1.3c-0.7,0-1.3-0.5-1.3-1.2c0-0.2,0-0.5,0.2-0.7
		c0.1-0.2,0.2-0.5,0.2-0.7c0-0.9-0.7-1.6-1.6-1.6c-0.9,0-1.6,0.7-1.6,1.6c0,0.1,0,0.3,0,0.4c-0.2,0.6-0.9,1-1.6,0.8
		c-0.4-0.1-0.6-0.4-0.8-0.8c1.3-0.1,1.7-0.8,1.7-1.8c0-0.8-0.3-1.5-1.2-1.7c-0.1-0.6-0.5-1-1-1.1c0.5-0.4,0.7-1.2,0.3-1.8L34.3,11.5
		L34.3,11.5z M17.2,15.4c0.7-0.3,1.5-0.5,2.3-0.6c0.1,0.5,0.4,0.9,0.9,1.1c-0.1,0.2-0.1,0.4-0.1,0.6c-0.9,0.4-0.9,1.2-0.7,1.9
		c0.2,0.9,0.8,1.5,2.1,1.3c0,1.1-1.5,1.6-2.2,0.7c0-0.1,0-0.2,0-0.3c-0.2-0.8-1.1-1.3-1.9-1.1c-0.8,0.2-1.3,1-1.1,1.9
		c0.1,0.2,0.2,0.5,0.3,0.6c0,0.5-0.2,0.9-0.6,1.1c-0.2,0.1-0.4,0.2-0.7,0.1c0.8-0.5,0.8-1.3,0.5-2c-0.2-0.5-0.5-0.9-0.9-1.1
		c0.1-1.3,0.3-2.5,0.7-3.4C16,16,16.5,15.6,17.2,15.4z M35.3,23.3l-2.2,0.8l-2.2-0.8l2.2-0.8L35.3,23.3z M18.6,26.3l-0.2,0.8
		l-0.1,0.3l-0.2-0.1l-0.7-0.4l0.2-0.7l0-0.2l0.3,0.1C17.9,26.1,18.6,26.3,18.6,26.3z M47.7,26.3l0.9-0.3l0,0.2l0.2,0.8l-0.7,0.4
		l-0.1,0.1l-0.1-0.3L47.7,26.3z">
  </path>
  <path class="st2" d="M43.7,21.3c-0.3-0.4-0.5-0.8-0.5-1.3c-0.3,0.4-0.7,0.7-1.1,0.9C42.6,21,43.1,21.1,43.7,21.3z M47.5,21.8
		c-0.3,0.2-0.6,0.3-0.9,0.4c0.6,0.2,1.2,0.4,1.8,0.7c-0.2-0.3-0.3-0.6-0.4-0.9L48,22C47.8,22,47.6,21.9,47.5,21.8z M33.1,18.7
		c-0.2,0.5-0.5,0.9-0.9,1.2c0.3,0,0.6,0,0.9,0s0.6,0,0.9,0C33.6,19.5,33.3,19.1,33.1,18.7z M17.8,22.9c0.6-0.2,1.2-0.5,1.8-0.7
		c-0.3-0.1-0.6-0.2-0.9-0.4c-0.1,0.1-0.3,0.2-0.5,0.2l-0.1,0C18.1,22.3,18,22.6,17.8,22.9z M24.2,20.8c-0.4-0.2-0.8-0.5-1.1-0.9
		c0,0.5-0.2,1-0.5,1.3C23.1,21.1,23.7,21,24.2,20.8z M27.9,19.2c-0.1,0.4-0.4,0.7-0.7,1c0.6-0.1,1.3-0.2,1.9-0.2
		c-0.4-0.2-0.7-0.5-0.9-0.8C28.1,19.2,28,19.2,27.9,19.2z M38.3,19.2c-0.1,0-0.2,0-0.3,0c-0.2,0.3-0.6,0.6-0.9,0.8
		c0.6,0.1,1.3,0.1,1.9,0.2C38.7,20,38.5,19.7,38.3,19.2C38.3,19.3,38.3,19.2,38.3,19.2z M53.6,20.6c-0.6-0.3-1.4-0.1-1.7,0.5
		c0,0,0,0,0,0c-0.3,0.6-0.1,1.4,0.5,1.7c0.6,0.3,1.4,0.1,1.7-0.5C54.4,21.7,54.2,20.9,53.6,20.6z M44.1,16.2
		c-0.7-0.2-1.3,0.2-1.5,0.9c-0.2,0.7,0.2,1.3,0.9,1.5c0.7,0.2,1.4-0.2,1.5-0.9C45.2,17,44.8,16.3,44.1,16.2z M45.2,13.7
		c-0.4,0-0.7,0.3-0.7,0.7c0,0.4,0.3,0.7,0.7,0.7s0.7-0.3,0.7-0.7C45.9,14,45.6,13.7,45.2,13.7z M44.7,11.2c-0.4,0-0.7,0.3-0.7,0.7
		s0.3,0.7,0.7,0.7c0.4,0,0.7-0.3,0.7-0.7C45.4,11.6,45.1,11.3,44.7,11.2C44.7,11.2,44.7,11.2,44.7,11.2z M53.3,17.8
		c-0.4,0-0.7,0.3-0.7,0.7c0,0.4,0.3,0.7,0.7,0.7c0.4,0,0.7-0.3,0.7-0.7S53.7,17.8,53.3,17.8z M52.7,15.3c-0.4,0-0.7,0.3-0.7,0.7
		c0,0.4,0.3,0.7,0.7,0.7c0.4,0,0.7-0.3,0.7-0.7C53.4,15.6,53.1,15.3,52.7,15.3z M51.7,13.1c-0.4,0-0.7,0.3-0.7,0.7
		c0,0.4,0.3,0.7,0.7,0.7c0.4,0,0.7-0.3,0.7-0.7C52.4,13.4,52,13.1,51.7,13.1z M50,11.2c-0.4,0-0.7,0.3-0.7,0.7s0.3,0.7,0.7,0.7
		c0.4,0,0.7-0.3,0.7-0.7S50.4,11.2,50,11.2z M48,9.7c-0.4,0-0.7,0.3-0.7,0.7s0.3,0.7,0.7,0.7s0.7-0.3,0.7-0.7S48.4,9.7,48,9.7z
		 M45.8,8.9c-0.4,0-0.7,0.3-0.7,0.7s0.3,0.7,0.7,0.7c0.4,0,0.7-0.3,0.7-0.7S46.2,8.9,45.8,8.9z M43.6,9.1c-0.4,0-0.7,0.3-0.7,0.7
		s0.3,0.7,0.7,0.7s0.7-0.3,0.7-0.7C44.3,9.4,44,9.1,43.6,9.1z M41.9,7.2c-0.4,0-0.7,0.3-0.7,0.7c0,0.4,0.3,0.7,0.7,0.7
		c0.4,0,0.7-0.3,0.7-0.7C42.6,7.5,42.3,7.2,41.9,7.2z M39.8,5.8c-0.4,0-0.7,0.3-0.7,0.7s0.3,0.7,0.7,0.7c0.4,0,0.7-0.3,0.7-0.7
		S40.2,5.8,39.8,5.8z M37.6,5c-0.4,0-0.7,0.3-0.7,0.7c0,0.4,0.3,0.7,0.7,0.7s0.7-0.3,0.7-0.7C38.3,5.3,38,5,37.6,5z M35.3,4.6
		c-0.4,0-0.7,0.3-0.7,0.7c0,0.4,0.3,0.7,0.7,0.7S36,5.7,36,5.3C36,4.9,35.7,4.6,35.3,4.6z M13.8,22.8c0.6-0.3,0.8-1.1,0.5-1.7
		c-0.3-0.6-1.1-0.8-1.7-0.5c-0.6,0.3-0.8,1.1-0.5,1.7C12.4,22.9,13.2,23.1,13.8,22.8z M22.7,18.6c0.7-0.2,1.1-0.8,0.9-1.5
		c-0.2-0.7-0.9-1.1-1.5-0.9c-0.7,0.2-1.1,0.8-0.9,1.5C21.4,18.4,22.1,18.8,22.7,18.6z M33.1,17.3c0.7,0,1.3-0.6,1.3-1.2
		c0-0.7-0.6-1.2-1.3-1.2c-0.7,0-1.3,0.6-1.3,1.2C31.9,16.7,32.4,17.3,33.1,17.3z M21,15.1c0.4,0,0.7-0.3,0.7-0.7
		c0-0.4-0.3-0.7-0.7-0.7c-0.4,0-0.7,0.3-0.7,0.7C20.3,14.8,20.6,15.1,21,15.1z M21.6,12.6c0.4,0,0.7-0.3,0.7-0.7s-0.3-0.7-0.7-0.7
		c-0.4,0-0.7,0.3-0.7,0.7S21.2,12.6,21.6,12.6z M12.9,19.2c0.4,0,0.7-0.3,0.7-0.7c0-0.4-0.3-0.7-0.7-0.7s-0.7,0.3-0.7,0.7
		S12.6,19.2,12.9,19.2z M13.5,16.7c0.4,0,0.7-0.3,0.7-0.7c0-0.4-0.3-0.7-0.7-0.7c-0.4,0-0.7,0.3-0.7,0.7
		C12.8,16.4,13.1,16.7,13.5,16.7z M14.5,14.5c0.4,0,0.7-0.3,0.7-0.7s-0.3-0.7-0.7-0.7c-0.4,0-0.7,0.3-0.7,0.7S14.2,14.5,14.5,14.5z
		 M16.2,12.6c0.4,0,0.7-0.3,0.7-0.7s-0.3-0.7-0.7-0.7c-0.4,0-0.7,0.3-0.7,0.7S15.8,12.6,16.2,12.6z M18.2,11.1
		c0.4,0,0.7-0.3,0.7-0.7s-0.3-0.7-0.7-0.7s-0.7,0.3-0.7,0.7S17.8,11.1,18.2,11.1z M20.4,10.3c0.4,0,0.7-0.3,0.7-0.7
		s-0.3-0.7-0.7-0.7s-0.7,0.3-0.7,0.7C19.7,10,20,10.3,20.4,10.3z M22.6,10.5c0.4,0,0.7-0.3,0.7-0.7S23,9.1,22.6,9.1
		s-0.7,0.3-0.7,0.7S22.3,10.5,22.6,10.5z M24.3,8.6c0.4,0,0.7-0.3,0.7-0.7s-0.3-0.7-0.7-0.7c-0.4,0-0.7,0.3-0.7,0.7
		C23.6,8.3,23.9,8.6,24.3,8.6z M26.4,7.2c0.4,0,0.7-0.3,0.7-0.7s-0.3-0.7-0.7-0.7c-0.4,0-0.7,0.3-0.7,0.7S26,7.2,26.4,7.2z
		 M28.6,6.4c0.4,0,0.7-0.3,0.7-0.7S29,5,28.6,5c-0.4,0-0.7,0.3-0.7,0.7S28.2,6.4,28.6,6.4z M33.1,13.1c0.4,0,0.7-0.3,0.7-0.7
		c0-0.4-0.3-0.7-0.7-0.7s-0.7,0.3-0.7,0.7C32.4,12.8,32.7,13.1,33.1,13.1z M33.1,10.6c0.4,0,0.7-0.3,0.7-0.7s-0.3-0.7-0.7-0.7
		s-0.7,0.3-0.7,0.7S32.7,10.6,33.1,10.6z M33.1,8.1c0.4,0,0.7-0.3,0.7-0.7s-0.3-0.7-0.7-0.7S32.4,7,32.4,7.4
		C32.4,7.8,32.7,8.1,33.1,8.1z M30.9,6c0.4,0,0.7-0.3,0.7-0.7s-0.3-0.7-0.7-0.7c-0.4,0-0.7,0.3-0.7,0.7C30.2,5.7,30.5,6,30.9,6z
		 M50,22.9c0.6,0.3,1,0.2,1.6,0c-0.9-0.5-1.4-0.9-1-2c0.2-0.5,0.4-0.9,1-1c-0.3-4.2-1.5-6.3-5.4-8.2l-0.3,0.1c0,0,0,0.1,0,0.1
		c0,0.6-0.3,0.9-0.7,1.2c0.7,0.1,1.3,0.5,1.3,1.3c0,0.7-0.5,1.1-1.1,1.3c0.2,0.4,0.2,0.5,0.2,1c0.8,0.4,1,0.9,0.8,1.7
		c-0.3,1.1-1,1.3-2.1,1c-0.2,1.8,1.8,2.5,2.8,1.2c0-0.1,0-0.2,0-0.3c0.2-0.7,0.9-1.1,1.5-0.9c0.7,0.2,1.1,0.9,0.9,1.5
		c0,0.2-0.2,0.4-0.3,0.6C49.2,22,49.5,22.6,50,22.9z M32,7.4c0-0.1,0-0.2,0-0.3c-5.1-0.4-8.7,3.1-9.2,7.9c0.4,0.2,0.6,0.4,0.8,0.8
		c0.9,0,1.3,0.3,1.5,1.1c0.3,1.1-0.3,1.6-1.3,1.9c0.3,0.7,1,1.2,1.9,1c0.7-0.2,1.1-0.8,1.1-1.5c-0.1-0.2-0.2-0.4-0.2-0.7
		c0-0.7,0.6-1.3,1.3-1.3c0.7,0,1.3,0.6,1.3,1.3c0,0.1,0,0.3-0.1,0.4c0.2,0.7,0.8,1.1,1.5,1.1c0.9,0,1.4-0.6,1.5-1.4
		c-1.1,0-1.8-0.3-1.8-1.5c0-0.8,0.3-1.3,1.2-1.4c0.2-1,0.7-1.1,1.6-1.2c0.9,0.1,1.4,0.2,1.6,1.2c0.9,0.2,1.2,0.6,1.2,1.4
		c0,1.2-0.6,1.5-1.8,1.5c0.1,0.8,0.6,1.4,1.5,1.4c0.7,0,1.3-0.5,1.5-1.1c0-0.1-0.1-0.3-0.1-0.4c0-0.7,0.6-1.3,1.3-1.3
		c0.7,0,1.3,0.6,1.3,1.3c0,0.2-0.1,0.5-0.2,0.7c0,0.7,0.4,1.3,1.2,1.5c0.9,0.2,1.5-0.3,1.9-1c-1.1-0.3-1.6-0.7-1.3-1.9
		c0.2-0.8,0.6-1.2,1.5-1.1c0.2-0.4,0.4-0.6,0.8-0.8c-0.5-4.8-4.1-8.3-9.2-7.9c0,0.1,0,0.2,0,0.3c0,0.2-0.1,0.4-0.2,0.6v1.2
		c0.1,0.2,0.2,0.4,0.2,0.6s-0.1,0.4-0.2,0.6l0,1.3c0.1,0.2,0.2,0.4,0.2,0.6c0,0.7-0.5,0.9-1.1,1.2c-0.5-0.2-1.1-0.5-1.1-1.2
		c0-0.2,0.1-0.4,0.2-0.6v-1.2c-0.1-0.2-0.2-0.4-0.2-0.6c0-0.2,0.1-0.4,0.2-0.6V8.1C32.1,7.9,32,7.7,32,7.4z M15.6,20.9
		c0.4,1.1-0.1,1.5-1,2c0.6,0.2,1,0.3,1.6,0c0.6-0.3,0.8-0.9,0.8-1.5c-0.5-0.5-0.5-1.3,0-1.8c0.2-0.2,0.4-0.3,0.6-0.3
		c0.7-0.2,1.4,0.2,1.5,0.9c0,0.1,0,0.2,0,0.3c1,1.3,2.9,0.6,2.8-1.2c-1.1,0.3-1.8,0.1-2.1-1c-0.2-0.8,0-1.3,0.8-1.7
		c0-0.4,0-0.6,0.2-1c-0.6-0.2-1.1-0.6-1.1-1.2c0-0.8,0.6-1.1,1.3-1.3c-0.4-0.3-0.7-0.6-0.7-1.2c0,0,0-0.1-0.3-0.2
		c-3.9,1.9-5.1,3.9-5.4,8.2C15.2,20.1,15.4,20.4,15.6,20.9z M49.1,24.9c-4.9-2.3-10.3-3.5-16-3.5s-11.1,1.3-16,3.5
		c-0.3,0.1-0.7,0-0.8-0.3c-0.1-0.3,0-0.6,0.1-0.8c-1,0.3-1.7,0.3-2.6-0.4c-1.6,1.1-3.4-1.1-2.2-2.1c-0.6-0.7-0.6-1.5,0.2-2
		c-0.1-0.2-0.2-0.4-0.2-0.7c0-0.8,0.6-1.1,1.3-1.3c-0.4-0.3-0.7-0.6-0.7-1.2c0-0.8,0.7-1.2,1.4-1.3c-0.2-0.3-0.3-0.5-0.3-0.9
		c0-0.7,0.6-1.3,1.3-1.3c0.2,0,0.4,0.1,0.6,0.1c-0.1-0.3-0.2-0.5-0.2-0.8c0-0.7,0.6-1.3,1.3-1.3c0.3,0,0.5,0.1,0.8,0.3
		c0-0.1-0.1-0.3-0.1-0.5c0-0.7,0.6-1.3,1.3-1.3c0.4,0,0.6,0.1,0.9,0.3c0.1-0.7,0.5-1.2,1.3-1.2c0.6,0,0.9,0.3,1.2,0.7
		c0.3-0.3,0.6-0.5,1.1-0.5c0.2,0,0.4,0,0.6,0.1C23.1,8.3,23,8.1,23,7.9c0-0.7,0.6-1.3,1.3-1.3c0.4,0,0.6,0.2,0.9,0.4
		c0-0.1-0.1-0.3-0.1-0.5c0-0.7,0.6-1.3,1.3-1.3c0.4,0,0.6,0.2,0.9,0.4c0.1-0.7,0.5-1.2,1.3-1.2c0.5,0,0.7,0.2,1,0.5
		C29.9,4.4,30.2,4,30.9,4c0.2,0,0.3,0,0.5,0.1c0.4-0.4,0.8-0.6,1.3-0.7V2h-1.1V1.2h1.1V0.3h0.8v0.9h1.1V2h-1.1v1.3
		c0.5,0.1,0.9,0.3,1.3,0.8C35,4.1,35.1,4,35.3,4c0.6,0,1,0.4,1.2,0.9c0.3-0.3,0.6-0.5,1-0.5c0.8,0,1.1,0.5,1.3,1.2
		c0.3-0.2,0.5-0.4,0.9-0.4c0.7,0,1.3,0.6,1.3,1.3c0,0.2,0,0.4-0.1,0.5c0.3-0.2,0.5-0.4,0.9-0.4c0.7,0,1.3,0.6,1.3,1.3
		c0,0.3-0.1,0.5-0.2,0.7c0.2,0,0.4-0.1,0.6-0.1c0.5,0,0.8,0.2,1.1,0.5c0.3-0.4,0.6-0.7,1.2-0.7c0.8,0,1.1,0.5,1.3,1.2
		c0.3-0.2,0.5-0.3,0.9-0.3c0.7,0,1.3,0.6,1.3,1.3c0,0.1,0,0.3-0.1,0.5c0.3-0.1,0.5-0.3,0.8-0.3c0.7,0,1.3,0.6,1.3,1.3
		c0,0.3-0.1,0.5-0.2,0.8c0.2-0.1,0.4-0.2,0.6-0.2c0.7,0,1.3,0.6,1.3,1.3c0,0.4-0.1,0.6-0.3,0.9c0.7,0.1,1.4,0.4,1.4,1.3
		c0,0.6-0.3,0.9-0.7,1.2c0.7,0.1,1.3,0.5,1.3,1.3c0,0.3-0.1,0.5-0.2,0.7c0.8,0.5,0.8,1.3,0.3,2.1c0.7,0.6,0.3,1.5-0.3,2
		c-0.6,0.5-1.3,0.6-2,0.1c-0.9,0.7-1.6,0.7-2.6,0.4l0.1,0.3C50.1,24.6,49.6,25.1,49.1,24.9z M18.8,26.2l-1-0.4l-0.1-0.2
		c-0.1,0-0.1,0-0.2,0.1c-0.3,0-0.3-0.3-0.1-0.3c4.8-2.2,10.1-3.5,15.7-3.5c5.6,0,11,1.2,15.7,3.5c0.1,0.1,0.2,0.4-0.1,0.3
		c0,0-0.1,0-0.2-0.1l-0.1,0.2l-1,0.4l0.3,1.2l-0.1,0.2c0.5,0.2,0.2,0.6,0,0.5c-4.4-2.1-9.3-3.2-14.5-3.2S23,26,18.6,28.1
		c-0.1,0-0.2,0-0.3-0.1s0-0.2,0.1-0.3c0,0,0.1-0.1,0.2-0.1l-0.1-0.2C18.5,27.4,18.8,26.2,18.8,26.2z M24.5,25.3l2.2-1.5l-2.7-0.3
		L21.8,25L24.5,25.3z M46.2,26.7c0.5,0,0.9-0.4,0.9-0.9s-0.4-0.9-0.9-0.9s-0.9,0.4-0.9,0.9C45.3,26.4,45.7,26.7,46.2,26.7z
		 M28.6,24.4c0.5,0,0.9-0.4,0.9-0.9c0-0.5-0.4-0.9-0.9-0.9c-0.5,0-0.9,0.4-0.9,0.9C27.7,24,28.1,24.4,28.6,24.4z M20,26.7
		c0.5,0,0.9-0.4,0.9-0.9s-0.4-0.9-0.9-0.9c-0.5,0-0.9,0.4-0.9,0.9C19.1,26.4,19.5,26.7,20,26.7z M37.6,24.4c0.5,0,0.9-0.4,0.9-0.9
		c0-0.5-0.4-0.9-0.9-0.9c-0.5,0-0.9,0.4-0.9,0.9C36.7,24,37.1,24.4,37.6,24.4z M41.7,25.3l2.7-0.3l-2.2-1.5l-2.7,0.3L41.7,25.3z
		 M35.9,23.3l-2.8-1l-2.8,1l2.8,1L35.9,23.3z M4.1,58.7c0,15.8,13,28.8,29,28.8c16,0,29-13,29-28.8c0-15.9-13-28.8-29-28.8
		C17.2,29.9,4.1,42.8,4.1,58.7z M65.3,58.7c0,17.6-14.4,31.9-32.2,31.9S1,76.2,1,58.7c0-17.6,14.4-32,32.2-32S65.3,41.1,65.3,58.7z
		 M28.9,45.1l4.2,4.3l3.9-4.1c-1.4-0.4-2.7-0.6-4.1-0.7C31.5,44.5,30.2,44.8,28.9,45.1z M39.9,42.1l6.2-6.3
		c8,4.5,13.3,13.1,13.3,22.8c0,6.3-2.3,12.1-6.1,16.7l-2.9-2.9c3.2-3.9,5.4-7.8,5.4-14.1c0-6.7-3.5-14.1-9.1-18L43,44.1
		c1.9,1.4,3.4,2.8,4.7,4.8l-2.8,2.4c-1.1-2-2.6-3.3-4.4-4.6l-7.4,7.7l-7.6-7.8c-4,2.7-6.3,6.7-6.4,11.6c-0.1,6.5,4.1,11,10,13v-13h9
		v2.7h-5.5v3.5H38v3.1h-5.5v4.4c4.1,0.2,8.4-2.1,11-5l2.7,2.7c-3.5,4-8.5,6-13.7,6v4h-3.5v-4.4c-8-2-13.8-8.9-13.7-17.2
		c0.1-5.7,3.1-10.4,7.6-13.7l-3.7-3.9c-5.8,4.7-8.9,10.5-9.2,18c-0.2,6.6,3.2,11.9,5.4,14.2L12.9,75C9,70.5,6.7,65,6.7,58.6
		c0-9.7,5.4-18.2,13.3-22.7l6.2,6.5c2.2-0.8,4.5-1.3,6.9-1.3c2.4,0,4.4,0.5,6.6,1.3L39.9,42.1z">
  </path>
  <path class="st3" d="M66.2,58.7c0,18.1-14.9,32.9-33.1,32.9S0,76.8,0,58.7c0-18.1,14.9-32.9,33.1-32.9S66.2,40.6,66.2,58.7z
		 M65.3,58.7c0-17.6-14.4-32-32.2-32S1,41.1,1,58.7c0,17.6,14.4,31.9,32.2,31.9S65.3,76.2,65.3,58.7z M5.1,58.7
		c0,15.3,12.6,27.8,28,27.8s28-12.5,28-27.8c0-15.4-12.6-27.8-28-27.8S5.1,43.3,5.1,58.7z M4.1,58.7c0-15.9,13-28.8,29-28.8
		c16,0,29,12.9,29,28.8c0,15.8-13,28.8-29,28.8C17.2,87.5,4.1,74.5,4.1,58.7z M36.5,52.3l15.7,16.1c1.8-2.9,2.7-5.9,2.7-10.1
		c0-7.2-4.1-13.8-8-16.7L44.5,44c1.9,1.5,3.2,3.1,4.5,5.1l-4.4,3.7c-1-2-2.1-3.5-4-4.8C40.6,48.1,36.5,52.3,36.5,52.3z M56.4,72.7
		c-2.8,4.8-7.1,8.5-12.2,10.8l-2.5-2.6L36.9,76c-1.1,0.2-2.2,0.4-3.3,0.4v4h-5.4v-4.6c-8.1-2.2-13.8-9.8-13.7-18
		c0-1.4,0.2-2.7,0.5-4l-2.7-2.7c-0.8,2.2-1.2,4.6-1.3,7.2c-0.1,5.1,2.1,10.6,5.8,14.1l-3.9,4c-4.6-5.1-7.1-10.9-7.1-17.9
		c0-10.2,5.6-19,14.4-23.9l6.3,6.5c2.1-0.7,4.5-1.1,6.6-1.1c2.4,0,4.5,0.4,6.4,1.1l6.4-6.6c8.9,4.9,14.5,13.7,14.5,24
		C60.4,63.8,59,68.5,56.4,72.7z M28.1,67.2L20,59c0.2,4.6,3,8.9,8.1,10.9V67.2z M39.9,42.1l-0.2,0.2c-2.2-0.8-4.2-1.3-6.6-1.3
		c-2.4,0-4.7,0.4-6.9,1.3L20,35.9C12.1,40.4,6.7,48.9,6.7,58.6C6.7,65,9,70.5,12.9,75l2.5-2.6c-2.2-2.2-5.6-7.6-5.4-14.2
		c0.3-7.5,3.4-13.3,9.2-18l3.7,3.9c-4.4,3.3-7.5,8-7.6,13.7C15.3,66.2,21,73.2,29,75.1v4.4h3.5v-4c5.3,0,10.2-2.1,13.7-6l-2.7-2.7
		c-2.6,2.9-6.9,5.2-11,5v-4.4H38v-3.1h-5.5v-3.5h5.5v-2.7h-9v13c-5.9-2-10.2-6.5-10-13c0.1-4.9,2.4-8.8,6.4-11.6l7.6,7.8l7.4-7.7
		c1.9,1.3,3.3,2.6,4.4,4.6l2.8-2.4c-1.3-2-2.8-3.4-4.7-4.8l3.7-3.8c5.6,3.8,9.1,11.3,9.1,18c0,6.2-2.1,10.1-5.4,14.1l2.9,2.9
		c3.8-4.5,6.1-10.3,6.1-16.7c0-9.7-5.4-18.2-13.3-22.8L39.9,42.1L39.9,42.1z M28.9,45.1c1.3-0.3,2.7-0.6,4-0.5
		c1.4,0,2.7,0.3,4.1,0.7l-3.9,4.1C33.1,49.4,28.9,45.1,28.9,45.1z M30.8,45.7l2.3,2.3l2.1-2.2c-0.8-0.1-1.5-0.2-2.3-0.2
		C32.3,45.5,31.6,45.6,30.8,45.7z M47.7,26.3l0.2,0.8l0.1,0.3l0.1-0.1l0.7-0.4l-0.2-0.8l0-0.2L47.7,26.3z M49.1,24.9
		c0.6,0.2,1-0.4,0.8-0.9l-0.1-0.3c1,0.3,1.7,0.3,2.6-0.4c0.7,0.5,1.3,0.4,2-0.1c0.6-0.5,1-1.4,0.3-2c0.6-0.7,0.6-1.5-0.3-2.1
		c0.1-0.2,0.2-0.4,0.2-0.7c0-0.8-0.6-1.1-1.3-1.3c0.4-0.3,0.7-0.6,0.7-1.2c0-0.8-0.7-1.2-1.4-1.3c0.2-0.3,0.3-0.5,0.3-0.9
		c0-0.7-0.6-1.3-1.3-1.3c-0.2,0-0.4,0.1-0.6,0.1c0.1-0.3,0.2-0.5,0.2-0.8c0-0.7-0.6-1.3-1.3-1.3c-0.3,0-0.5,0.1-0.8,0.3
		c0-0.1,0.1-0.3,0.1-0.5c0-0.7-0.6-1.3-1.3-1.3l0,0c-0.4,0-0.6,0.1-0.9,0.3c-0.1-0.6-0.5-1.2-1.3-1.2c-0.6,0-0.9,0.3-1.2,0.7
		c-0.3-0.3-0.6-0.5-1.1-0.5c-0.2,0-0.4,0-0.6,0.1c0.1-0.2,0.2-0.4,0.2-0.7c0-0.7-0.6-1.3-1.3-1.3c-0.4,0-0.6,0.2-0.9,0.4
		c0-0.1,0.1-0.3,0.1-0.5c0-0.7-0.6-1.3-1.3-1.3l0,0c-0.4,0-0.6,0.2-0.9,0.4c-0.1-0.7-0.5-1.2-1.3-1.2c-0.5,0-0.7,0.2-1,0.5
		C36.3,4.4,36,4,35.3,4c-0.2,0-0.3,0-0.5,0.1c-0.4-0.4-0.7-0.6-1.3-0.8V2h1.1V1.2h-1.1V0.3h-0.8v0.9h-1.1V2h1.1v1.3
		c-0.5,0.1-0.9,0.3-1.3,0.8C31.2,4.1,31.1,4,30.9,4c-0.6,0-1,0.4-1.2,0.9c-0.3-0.3-0.6-0.5-1-0.5c-0.8,0-1.1,0.5-1.3,1.2
		c-0.3-0.2-0.5-0.4-1-0.4c-0.7,0-1.3,0.6-1.3,1.3v0c0,0.2,0,0.4,0.1,0.5c-0.3-0.2-0.5-0.4-0.9-0.4c-0.7,0-1.3,0.6-1.3,1.3v0
		c0,0.3,0.1,0.5,0.2,0.7c-0.2,0-0.4-0.1-0.6-0.1c-0.5,0-0.8,0.2-1.1,0.5c-0.3-0.4-0.6-0.7-1.2-0.7c-0.8,0-1.1,0.5-1.3,1.2
		c-0.3-0.2-0.5-0.3-0.9-0.3c-0.7,0-1.3,0.6-1.3,1.3l0,0c0,0.1,0,0.3,0.1,0.5c-0.3-0.1-0.5-0.3-0.8-0.3c-0.7,0-1.3,0.6-1.3,1.3v0
		c0,0.3,0.1,0.5,0.2,0.8c-0.2,0-0.4-0.1-0.6-0.1c-0.7,0-1.3,0.6-1.3,1.3l0,0c0,0.4,0.1,0.6,0.3,0.9c-0.8,0-1.4,0.4-1.4,1.3
		c0,0.6,0.3,0.9,0.7,1.2c-0.7,0.1-1.3,0.5-1.3,1.3c0,0.3,0.1,0.5,0.2,0.7c-0.8,0.5-0.8,1.3-0.3,2.1c-1.2,1,0.6,3.2,2.2,2.1
		c0.9,0.7,1.6,0.7,2.6,0.4c-0.1,0.3-0.3,0.5-0.1,0.8c0.1,0.3,0.5,0.5,0.8,0.3c4.9-2.3,10.2-3.5,16-3.5S44.2,22.7,49.1,24.9z
		 M18.6,26.3l-0.7-0.2L17.6,26l0,0.2l-0.2,0.7l0.7,0.4l0.2,0.1l0.1-0.3C18.4,27.1,18.6,26.3,18.6,26.3z M18.1,27.5l-1-0.5l0.2-1
		c-0.4,0-0.5-0.5-0.4-0.8c-0.4,0.1-0.8-0.2-1-0.5c-0.1-0.2-0.1-0.3-0.1-0.5c-0.7,0.1-1.5,0-2.1-0.4c-1.7,1-3.7-1.4-2.6-2.5
		c-0.5-0.7-0.4-1.6,0.3-2.1c-0.4-0.8,0-1.7,0.7-2.1c0,0,0.1,0,0.1,0c-0.3-0.3-0.4-0.6-0.4-1c0-0.7,0.5-1.3,1.2-1.5
		C13,14.3,13,14.1,13,13.8c0-0.9,0.7-1.5,1.6-1.5l0.1,0c-0.2-0.8,0.3-1.7,1.1-1.9c0.1,0,0.3,0,0.4,0c0.2,0,0.3,0,0.5,0.1
		c0-0.8,0.7-1.5,1.6-1.5c0.3,0,0.5,0.1,0.7,0.2c0.3-0.8,1.2-1.2,2-0.9c0.3,0.1,0.5,0.3,0.7,0.5c0.3-0.2,0.6-0.4,1-0.4h0.1
		c-0.2-0.8,0.3-1.7,1.2-1.8c0.1,0,0.2,0,0.4,0c0.2,0,0.4,0,0.6,0.1c0-0.9,0.7-1.5,1.6-1.5c0.3,0,0.5,0.1,0.7,0.2
		c0.2-0.6,0.8-1,1.5-1c0.4,0,0.7,0.1,1,0.3c0.3-0.4,0.8-0.7,1.3-0.7c0.1,0,0.3,0,0.4,0c0.2-0.3,0.6-0.5,0.9-0.6l0.2,0V2.3h-1.1V0.9
		h1.1V0h1.4v0.9h1.1v1.4h-1.1v0.8l0.2,0c0.3,0.1,0.7,0.3,0.9,0.6c0.1,0,0.3,0,0.4,0c0.6,0,1,0.3,1.3,0.7c0.3-0.2,0.6-0.3,1-0.3
		c0.7,0,1.2,0.4,1.5,1c0.2-0.1,0.5-0.2,0.8-0.2c0.9,0,1.5,0.7,1.6,1.5c0.8-0.3,1.7,0.1,2,0.9c0.1,0.2,0.1,0.4,0.1,0.6
		c0,0.1,0,0.2,0,0.3h0.1c0.4,0,0.7,0.1,1,0.4C44.9,8.2,45.3,8,45.8,8c0.7,0,1.2,0.4,1.5,1C48,8.7,49,8.9,49.4,9.7
		c0.1,0.2,0.2,0.5,0.2,0.7c0.1,0,0.3-0.1,0.5-0.1c0.9,0,1.6,0.7,1.6,1.5c0,0.1,0,0.3,0,0.4h0.1c0.9,0,1.6,0.7,1.6,1.5
		c0,0.2,0,0.5-0.1,0.7c0.7,0.2,1.2,0.8,1.2,1.5c0,0.4-0.1,0.8-0.4,1c0.8,0.3,1.2,1.2,0.9,2c0,0,0,0.1,0,0.1c0.6,0.5,0.7,1.4,0.3,2.1
		c0.7,0.7,0.1,1.8-0.5,2.3c-0.6,0.4-1.4,0.7-2.1,0.2c-0.6,0.4-1.4,0.6-2.1,0.4c0.1,0.6-0.5,1.2-1.1,1.1c0.2,0.3,0,0.7-0.4,0.8l0.2,1
		l-1,0.5c0.1,0.1,0.2,0.4,0.1,0.6c-0.1,0.3-0.4,0.4-0.7,0.3c0,0,0,0,0,0c-4.5-2.1-9.4-3.2-14.3-3.2c-5.1,0-10,1.1-14.3,3.2
		c-0.3,0.1-0.6,0-0.7-0.3C18,27.9,18,27.7,18.1,27.5z M18.8,26.2l-0.3,1.2l0.1,0.2c0,0-0.1,0-0.2,0.1c-0.1,0.1-0.1,0.2-0.1,0.3
		s0.2,0.2,0.3,0.1c4.4-2.1,9.3-3.2,14.5-3.2s10.1,1.1,14.5,3.2c0.2,0.1,0.6-0.3,0-0.5l0.1-0.2l-0.3-1.2l1-0.4l0.1-0.2
		c0.1,0,0.1,0,0.2,0.1c0.3,0,0.3-0.3,0.1-0.3c-4.8-2.2-10.1-3.5-15.7-3.5s-11,1.2-15.7,3.5c-0.1,0.1-0.1,0.4,0.1,0.3
		c0,0,0.1,0,0.2-0.1l0.1,0.2C17.8,25.8,18.8,26.2,18.8,26.2z M42.5,12.5c-1.2-3.1-4.1-5.3-8-5.1c0,0.3-0.1,0.5-0.2,0.7v1
		c0.3,0.4,0.3,1,0,1.5v0.7C36.9,11,40,11.2,42.5,12.5z M34.3,11.7c0.4,0.6,0.3,1.4-0.3,1.8c0.5,0.2,0.8,0.5,1,1.1
		c0.9,0.2,1.2,0.9,1.2,1.7c0,0.9-0.4,1.7-1.7,1.8c-0.2,0.6,0.1,1.4,0.8,1.6c0.6,0.2,1.4-0.1,1.6-0.8c0.1-0.3,0.1-0.5,0-0.8
		c0-0.1,0-0.3,0-0.4c0-0.9,0.7-1.6,1.6-1.6c0.9,0,1.6,0.7,1.6,1.6c0,0.3-0.1,0.5-0.2,0.7c0,0.5,0.4,1,0.9,1.1
		c0.5,0.1,1.1-0.1,1.4-0.5c-1.3-0.4-1.4-1.2-1.2-2.1c0.2-0.7,0.6-1.4,1.6-1.3c0.2-0.3,0.4-0.6,0.7-0.7c-0.1-0.7-0.3-1.4-0.5-2.1
		c-2.5-1.4-5.7-1.6-8.3-1.2C34.3,11.5,34.3,11.7,34.3,11.7z M32,7.4c0,0.2,0.1,0.4,0.2,0.6v1.2C32.1,9.5,32,9.7,32,10
		s0.1,0.4,0.2,0.6v1.2C32.1,12,32,12.2,32,12.5c0,0.7,0.5,0.9,1.1,1.2c0.5-0.2,1.1-0.5,1.1-1.2c0-0.2-0.1-0.4-0.2-0.6l0-1.3
		c0.1-0.2,0.2-0.4,0.2-0.6S34.1,9.5,34,9.3V8.1c0.1-0.2,0.2-0.4,0.2-0.6c0-0.1,0-0.2,0-0.3c5.1-0.4,8.7,3,9.2,7.9
		c-0.4,0.2-0.6,0.4-0.8,0.8c-0.9,0-1.3,0.3-1.5,1.1c-0.3,1.1,0.2,1.6,1.3,1.9c-0.3,0.7-1,1.2-1.9,1c-0.7-0.2-1.2-0.8-1.2-1.5
		c0.1-0.2,0.2-0.4,0.2-0.7c0-0.7-0.6-1.3-1.3-1.3l0,0c-0.7,0-1.3,0.6-1.3,1.3c0,0.1,0,0.3,0.1,0.4c-0.2,0.7-0.8,1.1-1.5,1.1
		c-0.9,0-1.4-0.6-1.5-1.4c1.1,0,1.8-0.3,1.8-1.5c0-0.8-0.3-1.3-1.2-1.4c-0.2-1-0.7-1.1-1.6-1.2c-0.9,0.1-1.4,0.2-1.6,1.2
		c-0.9,0.2-1.2,0.6-1.2,1.4c0,1.2,0.6,1.5,1.8,1.5c-0.1,0.8-0.6,1.4-1.5,1.4c-0.7,0-1.3-0.5-1.5-1.1c0-0.1,0.1-0.3,0.1-0.4
		c0-0.7-0.6-1.3-1.3-1.3c-0.7,0-1.3,0.6-1.3,1.3c0,0.2,0.1,0.5,0.2,0.7c0,0.7-0.4,1.3-1.1,1.5c-0.9,0.2-1.5-0.3-1.9-1
		c1.1-0.3,1.6-0.7,1.3-1.9c-0.2-0.8-0.6-1.2-1.5-1.1c-0.2-0.4-0.4-0.6-0.8-0.8c0.5-4.8,4.1-8.3,9.2-7.9C32,7.2,32,7.3,32,7.4z
		 M23.7,12.8c-0.2,0.7-0.4,1.4-0.5,2.1c0.3,0.1,0.5,0.4,0.7,0.7c1,0,1.4,0.6,1.6,1.3c0.2,0.9,0.1,1.7-1.2,2.1c0,0.7,0.5,1.3,1.2,1.3
		c0.7,0,1.3-0.5,1.3-1.2c0-0.2,0-0.5-0.2-0.7c-0.1-0.2-0.2-0.5-0.2-0.7c0-0.9,0.7-1.6,1.6-1.6c0.9,0,1.6,0.7,1.6,1.6
		c0,0.1,0,0.3,0,0.4c0.2,0.6,0.9,1,1.6,0.8c0.4-0.1,0.6-0.4,0.8-0.8c-1.3-0.1-1.7-0.8-1.7-1.8c0-0.8,0.3-1.5,1.2-1.7
		c0.1-0.6,0.5-1,1-1.1c-0.5-0.4-0.7-1.2-0.3-1.8v-0.2C29.4,11.2,26.2,11.4,23.7,12.8z M31.7,7.4c-3.9-0.2-6.7,2-8,5.1
		c2.4-1.2,5.5-1.5,8.2-1.2v-0.7c-0.3-0.4-0.3-1,0-1.5V8.2C31.8,7.9,31.7,7.7,31.7,7.4z M47.4,21.5L47.4,21.5
		c0.2,0.1,0.4,0.1,0.6,0.2l0.3,0c0.1,0.5,0.3,1,0.7,1.4l-0.2,0.2c-0.9-0.4-1.9-0.8-2.8-1.1l0-0.3C46.5,22,47,21.8,47.4,21.5z
		 M47.5,21.8c-0.3,0.2-0.6,0.3-0.9,0.4c0.6,0.2,1.2,0.4,1.8,0.7c-0.2-0.3-0.3-0.6-0.4-0.9L48,22C47.8,22,47.6,21.9,47.5,21.8z
		 M33,18.1h0.3c0.1,0.8,0.6,1.5,1.3,1.8l-0.1,0.3c-0.5,0-0.9,0-1.4,0s-0.9,0-1.4,0l-0.1-0.3C32.3,19.5,32.8,18.9,33,18.1z
		 M33.1,18.7c-0.2,0.5-0.5,0.9-0.9,1.2c0.3,0,0.6,0,0.9,0s0.6,0,0.9,0C33.6,19.5,33.3,19.1,33.1,18.7z M17.4,23.4l-0.2-0.2
		c0.4-0.4,0.6-0.8,0.7-1.4c0.4,0,0.5-0.1,0.8-0.3c0.4,0.3,0.9,0.5,1.5,0.5l0,0.3C19.3,22.6,18.3,23,17.4,23.4z M17.8,22.9
		c0.6-0.2,1.2-0.5,1.8-0.7c-0.3-0.1-0.6-0.2-0.9-0.4c-0.1,0.1-0.3,0.2-0.5,0.2l-0.1,0C18.1,22.3,18,22.6,17.8,22.9z M24.8,20.7V21
		c-0.9,0.2-1.8,0.4-2.7,0.7L22,21.4c0.6-0.5,0.9-1.3,0.8-2.1l0.3-0.1C23.4,20,24,20.6,24.8,20.7z M24.2,20.8
		c-0.4-0.2-0.8-0.5-1.1-0.9c0,0.5-0.2,1-0.5,1.3C23.1,21.1,23.7,21,24.2,20.8z M26.7,20.6l-0.1-0.3c0.5-0.3,0.9-0.8,1.1-1.4h0.2
		c0.2,0,0.3,0,0.5-0.1c0.4,0.5,0.8,0.9,1.4,1.1l0,0.3C28.7,20.3,27.7,20.5,26.7,20.6z M27.9,19.2c-0.1,0.4-0.4,0.7-0.7,1
		c0.6-0.1,1.3-0.2,1.9-0.2c-0.4-0.2-0.7-0.5-0.9-0.8C28.1,19.2,28,19.2,27.9,19.2z M36.5,20.3l0-0.3c0.6-0.2,1.1-0.6,1.4-1.1
		c0.2,0,0.3,0.1,0.5,0.1h0.2c0.2,0.6,0.5,1.1,1.1,1.4l-0.1,0.3C38.5,20.5,37.5,20.3,36.5,20.3z M38.3,19.2c-0.1,0-0.2,0-0.3,0
		c-0.2,0.3-0.6,0.6-0.9,0.8c0.6,0.1,1.3,0.1,1.9,0.2C38.7,20,38.5,19.7,38.3,19.2C38.3,19.3,38.3,19.2,38.3,19.2z M44.3,21.4
		l-0.1,0.2c-0.9-0.3-1.8-0.5-2.7-0.7v-0.3c0.8-0.2,1.4-0.7,1.7-1.4l0.3,0.1C43.4,20.2,43.7,20.9,44.3,21.4z M43.7,21.3
		c-0.3-0.4-0.5-0.8-0.5-1.3c-0.3,0.4-0.7,0.7-1.1,0.9C42.6,21,43.1,21.1,43.7,21.3z M44.1,16.2c-0.7-0.2-1.3,0.2-1.5,0.9
		c-0.2,0.7,0.2,1.3,0.9,1.5c0.7,0.2,1.4-0.2,1.5-0.9C45.2,17,44.8,16.3,44.1,16.2z M44.2,16c0.8,0.2,1.2,1,1,1.8
		c-0.2,0.8-1,1.2-1.8,1c-0.8-0.2-1.2-1-1-1.7c0,0,0,0,0,0C42.6,16.3,43.4,15.8,44.2,16z M45.2,13.7c-0.4,0-0.7,0.3-0.7,0.7
		c0,0.4,0.3,0.7,0.7,0.7c0.4,0,0.7-0.3,0.7-0.7C45.9,14,45.6,13.7,45.2,13.7z M45.2,13.5c0.5,0,0.9,0.4,0.9,0.9
		c0,0.5-0.4,0.9-0.9,0.9s-0.9-0.4-0.9-0.9C44.3,13.9,44.8,13.5,45.2,13.5z M44.7,11.2c-0.4,0-0.7,0.3-0.7,0.7s0.3,0.7,0.7,0.7
		c0.4,0,0.7-0.3,0.7-0.7C45.4,11.6,45.1,11.3,44.7,11.2C44.7,11.2,44.7,11.2,44.7,11.2z M44.7,11c0.5,0,0.9,0.4,0.9,0.9
		c0,0.5-0.4,0.9-0.9,0.9c-0.5,0-0.9-0.4-0.9-0.9C43.8,11.4,44.2,11,44.7,11z M53.3,17.8c-0.4,0-0.7,0.3-0.7,0.7s0.3,0.7,0.7,0.7
		s0.7-0.3,0.7-0.7C54,18.1,53.7,17.8,53.3,17.8z M53.3,17.6c0.5,0,0.9,0.4,0.9,0.9c0,0.5-0.4,0.9-0.9,0.9s-0.9-0.4-0.9-0.9
		C52.4,18,52.8,17.6,53.3,17.6z M52.7,15.3c-0.4,0-0.7,0.3-0.7,0.7c0,0.4,0.3,0.7,0.7,0.7s0.7-0.3,0.7-0.7S53.1,15.3,52.7,15.3z
		 M52.7,15.1c0.5,0,0.9,0.4,0.9,0.9c0,0.5-0.4,0.9-0.9,0.9s-0.9-0.4-0.9-0.9C51.8,15.5,52.2,15.1,52.7,15.1z M51.7,13.1
		c-0.4,0-0.7,0.3-0.7,0.7c0,0.4,0.3,0.7,0.7,0.7c0.4,0,0.7-0.3,0.7-0.7C52.4,13.4,52,13.1,51.7,13.1z M51.7,12.9
		c0.5,0,0.9,0.4,0.9,0.9c0,0.5-0.4,0.9-0.9,0.9c-0.5,0-0.9-0.4-0.9-0.9C50.8,13.3,51.2,12.9,51.7,12.9z M50,11.2
		c-0.4,0-0.7,0.3-0.7,0.7s0.3,0.7,0.7,0.7c0.4,0,0.7-0.3,0.7-0.7S50.4,11.2,50,11.2z M50,11c0.5,0,0.9,0.4,0.9,0.9
		c0,0.5-0.4,0.9-0.9,0.9c-0.5,0-0.9-0.4-0.9-0.9C49.1,11.4,49.5,11,50,11z M48,9.7c-0.4,0-0.7,0.3-0.7,0.7s0.3,0.7,0.7,0.7
		s0.7-0.3,0.7-0.7S48.4,9.7,48,9.7z M48,9.5c0.5,0,0.9,0.4,0.9,0.9c0,0.5-0.4,0.9-0.9,0.9c-0.5,0-0.9-0.4-0.9-0.9
		C47.1,9.9,47.5,9.5,48,9.5z M45.8,8.9c-0.4,0-0.7,0.3-0.7,0.7s0.3,0.7,0.7,0.7c0.4,0,0.7-0.3,0.7-0.7S46.2,8.9,45.8,8.9z M45.8,8.7
		c0.5,0,0.9,0.4,0.9,0.9c0,0.5-0.4,0.9-0.9,0.9s-0.9-0.4-0.9-0.9C44.9,9.1,45.3,8.7,45.8,8.7z M43.6,9.1c-0.4,0-0.7,0.3-0.7,0.7
		s0.3,0.7,0.7,0.7s0.7-0.3,0.7-0.7C44.3,9.4,44,9.1,43.6,9.1z M43.6,8.9c0.5,0,0.9,0.4,0.9,0.9c0,0.5-0.4,0.9-0.9,0.9
		c-0.5,0-0.9-0.4-0.9-0.9C42.7,9.3,43.1,8.9,43.6,8.9z M41.9,7.2c-0.4,0-0.7,0.3-0.7,0.7s0.3,0.7,0.7,0.7c0.4,0,0.7-0.3,0.7-0.7
		S42.3,7.2,41.9,7.2z M41.9,7c0.5,0,0.9,0.4,0.9,0.9s-0.4,0.9-0.9,0.9S41,8.4,41,7.9C41,7.4,41.4,7,41.9,7z M39.8,5.8
		c-0.4,0-0.7,0.3-0.7,0.7s0.3,0.7,0.7,0.7c0.4,0,0.7-0.3,0.7-0.7S40.2,5.8,39.8,5.8z M39.8,5.6c0.5,0,0.9,0.4,0.9,0.9
		s-0.4,0.9-0.9,0.9S38.9,7,38.9,6.5S39.3,5.6,39.8,5.6z M37.6,5c-0.4,0-0.7,0.3-0.7,0.7s0.3,0.7,0.7,0.7s0.7-0.3,0.7-0.7
		S38,5,37.6,5z M37.6,4.8c0.5,0,0.9,0.4,0.9,0.9c0,0.5-0.4,0.9-0.9,0.9c-0.5,0-0.9-0.4-0.9-0.9S37.1,4.8,37.6,4.8z M35.3,4.6
		c-0.4,0-0.7,0.3-0.7,0.7S34.9,6,35.3,6S36,5.7,36,5.3S35.7,4.6,35.3,4.6z M35.3,4.4c0.5,0,0.9,0.4,0.9,0.9s-0.4,0.9-0.9,0.9
		c-0.5,0-0.9-0.4-0.9-0.9S34.8,4.4,35.3,4.4z M13.8,22.8c0.6-0.3,0.8-1.1,0.5-1.7s-1.1-0.8-1.7-0.5c-0.6,0.3-0.8,1.1-0.5,1.7
		C12.4,22.9,13.2,23.1,13.8,22.8z M13.9,23c-0.7,0.4-1.6,0.1-2-0.6c-0.4-0.7-0.1-1.6,0.6-1.9c0,0,0,0,0,0c0.7-0.4,1.6-0.1,2,0.6
		C14.9,21.7,14.6,22.6,13.9,23z M22.7,18.6c0.7-0.2,1.1-0.8,0.9-1.5c-0.2-0.7-0.9-1.1-1.5-0.9c-0.7,0.2-1.1,0.8-0.9,1.5
		C21.4,18.4,22.1,18.8,22.7,18.6z M22.8,18.8c-0.8,0.2-1.6-0.3-1.8-1c0,0,0,0,0,0c-0.2-0.8,0.3-1.6,1-1.8s1.6,0.3,1.8,1
		C24,17.8,23.6,18.6,22.8,18.8z M33.1,17.3c0.7,0,1.3-0.6,1.3-1.2c0-0.7-0.6-1.2-1.3-1.2c-0.7,0-1.3,0.6-1.3,1.2
		C31.9,16.7,32.4,17.3,33.1,17.3z M33.1,17.5c-0.8,0-1.4-0.6-1.5-1.4c0-0.8,0.6-1.4,1.5-1.4c0.8,0,1.5,0.6,1.5,1.4
		C34.6,16.8,33.9,17.5,33.1,17.5z M21,15.1c0.4,0,0.7-0.3,0.7-0.7c0-0.4-0.3-0.7-0.7-0.7c-0.4,0-0.7,0.3-0.7,0.7
		C20.3,14.8,20.6,15.1,21,15.1z M21,15.3c-0.5,0-0.9-0.4-0.9-0.9c0-0.5,0.4-0.9,0.9-0.9c0.5,0,0.9,0.4,0.9,0.9
		C21.9,14.9,21.5,15.3,21,15.3z M21.6,12.6c0.4,0,0.7-0.3,0.7-0.7s-0.3-0.7-0.7-0.7s-0.7,0.3-0.7,0.7S21.2,12.6,21.6,12.6z
		 M21.6,12.8c-0.5,0-0.9-0.4-0.9-0.9c0-0.5,0.4-0.9,0.9-0.9c0.5,0,0.9,0.4,0.9,0.9C22.4,12.4,22,12.8,21.6,12.8z M12.9,19.2
		c0.4,0,0.7-0.3,0.7-0.7s-0.3-0.7-0.7-0.7c-0.4,0-0.7,0.3-0.7,0.7C12.2,18.9,12.6,19.2,12.9,19.2z M12.9,19.3
		c-0.5,0-0.9-0.4-0.9-0.9c0-0.5,0.4-0.9,0.9-0.9c0.5,0,0.9,0.4,0.9,0.9C13.8,19,13.4,19.3,12.9,19.3z M13.5,16.7
		c0.4,0,0.7-0.3,0.7-0.7c0-0.4-0.3-0.7-0.7-0.7s-0.7,0.3-0.7,0.7C12.8,16.4,13.1,16.7,13.5,16.7z M13.5,16.9c-0.5,0-0.9-0.4-0.9-0.9
		c0-0.5,0.4-0.9,0.9-0.9c0.5,0,0.9,0.4,0.9,0.9C14.4,16.5,14,16.9,13.5,16.9z M14.5,14.5c0.4,0,0.7-0.3,0.7-0.7
		c0-0.4-0.3-0.7-0.7-0.7c-0.4,0-0.7,0.3-0.7,0.7C13.8,14.2,14.2,14.5,14.5,14.5z M14.5,14.7c-0.5,0-0.9-0.4-0.9-0.9
		c0-0.5,0.4-0.9,0.9-0.9c0.5,0,0.9,0.4,0.9,0.9C15.4,14.3,15,14.7,14.5,14.7z M16.2,12.6c0.4,0,0.7-0.3,0.7-0.7s-0.3-0.7-0.7-0.7
		s-0.7,0.3-0.7,0.7S15.8,12.6,16.2,12.6z M16.2,12.8c-0.5,0-0.9-0.4-0.9-0.9c0-0.5,0.4-0.9,0.9-0.9c0.5,0,0.9,0.4,0.9,0.9
		C17.1,12.4,16.7,12.8,16.2,12.8z M18.2,11.1c0.4,0,0.7-0.3,0.7-0.7s-0.3-0.7-0.7-0.7s-0.7,0.3-0.7,0.7S17.8,11.1,18.2,11.1z
		 M18.2,11.3c-0.5,0-0.9-0.4-0.9-0.9c0-0.5,0.4-0.9,0.9-0.9s0.9,0.4,0.9,0.9C19.1,10.9,18.7,11.3,18.2,11.3z M20.4,10.3
		c0.4,0,0.7-0.3,0.7-0.7s-0.3-0.7-0.7-0.7c-0.4,0-0.7,0.3-0.7,0.7C19.7,10,20,10.3,20.4,10.3z M20.4,10.5c-0.5,0-0.9-0.4-0.9-0.9
		s0.4-0.9,0.9-0.9c0.5,0,0.9,0.4,0.9,0.9C21.3,10.1,20.9,10.5,20.4,10.5z M22.6,10.5c0.4,0,0.7-0.3,0.7-0.7S23,9.1,22.6,9.1
		c-0.4,0-0.7,0.3-0.7,0.7S22.3,10.5,22.6,10.5z M22.6,10.7c-0.5,0-0.9-0.4-0.9-0.9c0-0.5,0.4-0.9,0.9-0.9s0.9,0.4,0.9,0.9
		C23.5,10.3,23.1,10.7,22.6,10.7z M24.3,8.6c0.4,0,0.7-0.3,0.7-0.7c0-0.4-0.3-0.7-0.7-0.7s-0.7,0.3-0.7,0.7
		C23.6,8.3,23.9,8.6,24.3,8.6z M24.3,8.8c-0.5,0-0.9-0.4-0.9-0.9S23.8,7,24.3,7s0.9,0.4,0.9,0.9S24.8,8.8,24.3,8.8z M26.4,7.2
		c0.4,0,0.7-0.3,0.7-0.7s-0.3-0.7-0.7-0.7s-0.7,0.3-0.7,0.7S26,7.2,26.4,7.2z M26.4,7.4c-0.5,0-0.9-0.4-0.9-0.9s0.4-0.9,0.9-0.9
		c0.5,0,0.9,0.4,0.9,0.9S26.9,7.4,26.4,7.4z M28.6,6.4c0.4,0,0.7-0.3,0.7-0.7S29,5,28.6,5s-0.7,0.3-0.7,0.7S28.2,6.4,28.6,6.4z
		 M28.6,6.6c-0.5,0-0.9-0.4-0.9-0.9s0.4-0.9,0.9-0.9c0.5,0,0.9,0.4,0.9,0.9S29.1,6.6,28.6,6.6z M33.1,13.1c0.4,0,0.7-0.3,0.7-0.7
		c0-0.4-0.3-0.7-0.7-0.7s-0.7,0.3-0.7,0.7C32.4,12.8,32.7,13.1,33.1,13.1z M33.1,13.3c-0.5,0-0.9-0.4-0.9-0.9c0-0.5,0.4-0.9,0.9-0.9
		s0.9,0.4,0.9,0.9C34,12.9,33.6,13.3,33.1,13.3z M33.1,10.6c0.4,0,0.7-0.3,0.7-0.7s-0.3-0.7-0.7-0.7s-0.7,0.3-0.7,0.7
		S32.7,10.6,33.1,10.6z M33.1,10.8c-0.5,0-0.9-0.4-0.9-0.9c0-0.5,0.4-0.9,0.9-0.9S34,9.4,34,9.9C34,10.4,33.6,10.8,33.1,10.8z
		 M33.1,8.1c0.4,0,0.7-0.3,0.7-0.7s-0.3-0.7-0.7-0.7S32.4,7,32.4,7.4C32.4,7.8,32.7,8.1,33.1,8.1z M33.1,8.3c-0.5,0-0.9-0.4-0.9-0.9
		s0.4-0.9,0.9-0.9S34,6.9,34,7.4S33.6,8.3,33.1,8.3z M30.9,6c0.4,0,0.7-0.3,0.7-0.7s-0.3-0.7-0.7-0.7c-0.4,0-0.7,0.3-0.7,0.7
		C30.2,5.7,30.5,6,30.9,6z M30.9,6.2c-0.5,0-0.9-0.4-0.9-0.9s0.4-0.9,0.9-0.9c0.5,0,0.9,0.4,0.9,0.9C31.8,5.8,31.4,6.2,30.9,6.2z
		 M53.6,20.6c-0.6-0.3-1.4-0.1-1.7,0.5c0,0,0,0,0,0c-0.3,0.6-0.1,1.4,0.5,1.7c0.6,0.3,1.4,0.1,1.7-0.5
		C54.4,21.7,54.2,20.9,53.6,20.6z M53.7,20.4c0.7,0.4,1,1.3,0.6,2c-0.4,0.7-1.3,0.9-2,0.6c-0.7-0.4-1-1.2-0.6-1.9c0,0,0,0,0,0
		C52.1,20.3,53,20,53.7,20.4z M15.6,20.9c-0.2-0.5-0.4-0.9-1-1c0.3-4.3,1.4-6.2,5.3-8.2c0.3,0.1,0.3,0.2,0.3,0.2
		c0,0.6,0.3,0.9,0.7,1.2c-0.7,0.1-1.3,0.5-1.3,1.3c0,0.7,0.5,1.1,1.1,1.2c-0.2,0.4-0.2,0.5-0.2,1c-0.8,0.4-1,0.9-0.8,1.7
		c0.3,1.1,1,1.3,2.1,1c0.2,1.8-1.8,2.5-2.8,1.2c0-0.1,0-0.2,0-0.3c-0.2-0.7-0.9-1.1-1.5-0.9c-0.7,0.2-1.1,0.9-0.9,1.5
		c0,0.2,0.2,0.4,0.3,0.6c0.1,0.6-0.2,1.2-0.8,1.5c-0.6,0.3-1,0.2-1.6,0C15.5,22.4,16,22,15.6,20.9z M15.6,16.3
		c-0.4,1-0.6,2.1-0.7,3.4c0.5,0.2,0.7,0.7,0.9,1.1c0.3,0.7,0.3,1.4-0.5,2c0.2,0,0.5,0,0.7-0.1c0.4-0.2,0.7-0.7,0.6-1.1
		c-0.1-0.2-0.3-0.4-0.3-0.6c-0.2-0.8,0.3-1.7,1.1-1.9c0.8-0.2,1.7,0.3,1.9,1.1c0,0,0,0,0,0l0,0.3c0.7,0.9,2.1,0.4,2.2-0.7
		c-1.3,0.3-1.9-0.4-2.1-1.3c-0.2-0.7-0.1-1.5,0.7-1.9c0-0.2,0-0.4,0.1-0.6c-0.5-0.2-0.8-0.6-0.9-1.1c-0.7,0.2-1.6,0.4-2.3,0.6
		C16.5,15.6,16,16,15.6,16.3z M20,12c-2.2,1.1-3.4,2.3-4.2,3.9c0.4-0.3,0.8-0.5,1.3-0.7c0.7-0.3,1.6-0.5,2.3-0.7v-0.1
		c0-0.6,0.4-1.2,1-1.4C20.2,12.7,20,12.4,20,12z M50,22.9c-0.6-0.3-0.8-0.9-0.8-1.5c0.1-0.2,0.2-0.3,0.3-0.6
		c0.2-0.7-0.2-1.4-0.9-1.5c0,0,0,0,0,0c-0.7-0.2-1.4,0.2-1.5,0.9c0,0.1,0,0.2,0,0.3c-1,1.3-2.9,0.6-2.8-1.2c1.1,0.3,1.8,0.1,2.1-1
		c0.2-0.8,0-1.3-0.8-1.7c0-0.4,0-0.6-0.2-1c0.6-0.2,1.1-0.6,1.1-1.3c0-0.8-0.6-1.1-1.3-1.3c0.4-0.3,0.7-0.6,0.7-1.2c0,0,0-0.1,0-0.1
		l0.3-0.1c3.9,1.9,5.1,3.9,5.4,8.2c-0.5,0.2-0.8,0.5-1,1c-0.4,1.1,0.1,1.5,1,2C51.1,23.1,50.6,23.2,50,22.9z M46.8,14.7
		c-0.1,0.5-0.5,0.9-0.9,1.1c0.1,0.2,0.1,0.4,0.1,0.6c0.9,0.4,0.9,1.2,0.7,1.9c-0.2,0.9-0.8,1.5-2.1,1.3c0.1,1.1,1.5,1.6,2.2,0.7
		c0-0.1,0-0.2,0-0.3c0.2-0.8,1.1-1.3,1.9-1.1c0.8,0.2,1.3,1,1.1,1.9c-0.1,0.2-0.2,0.5-0.3,0.6c0,0.7,0.6,1.3,1.3,1.3
		c-0.8-0.5-0.8-1.3-0.5-2c0.2-0.5,0.5-0.9,0.9-1.1c-0.1-1.3-0.3-2.5-0.7-3.4c-0.4-0.3-0.9-0.7-1.5-0.9
		C48.4,15.1,47.5,14.9,46.8,14.7z M46.2,12c0,0.4-0.2,0.7-0.4,1c0.6,0.2,1,0.8,1,1.4v0.1c0.8,0.2,1.6,0.4,2.3,0.7
		c0.5,0.2,0.9,0.5,1.3,0.7C49.7,14.3,48.4,13.2,46.2,12z M41.7,25.3l-2.2-1.5l2.7-0.3l2.2,1.5L41.7,25.3z M37.6,24.4
		c-0.5,0-0.9-0.4-0.9-0.9c0-0.5,0.4-0.9,0.9-0.9s0.9,0.4,0.9,0.9C38.5,24,38.1,24.4,37.6,24.4z M37.6,24.2c0.4,0,0.7-0.3,0.7-0.7
		s-0.3-0.7-0.7-0.7c-0.4,0-0.7,0.3-0.7,0.7C36.9,23.9,37.2,24.2,37.6,24.2z M20,26.6c0.4,0,0.7-0.3,0.7-0.7c0-0.4-0.3-0.7-0.7-0.7
		s-0.7,0.3-0.7,0.7C19.3,26.2,19.6,26.6,20,26.6z M20,26.7c-0.5,0-0.9-0.4-0.9-0.9s0.4-0.9,0.9-0.9c0.5,0,0.9,0.4,0.9,0.9
		C20.9,26.4,20.5,26.7,20,26.7z M28.6,24.2c0.4,0,0.7-0.3,0.7-0.7s-0.3-0.7-0.7-0.7c-0.4,0-0.7,0.3-0.7,0.7
		C27.9,23.9,28.3,24.2,28.6,24.2z M28.6,24.4c-0.5,0-0.9-0.4-0.9-0.9c0-0.5,0.4-0.9,0.9-0.9c0.5,0,0.9,0.4,0.9,0.9
		C29.5,24,29.1,24.4,28.6,24.4z M46.2,26.6c0.4,0,0.7-0.3,0.7-0.7c0-0.4-0.3-0.7-0.7-0.7s-0.7,0.3-0.7,0.7
		C45.5,26.2,45.8,26.6,46.2,26.6z M46.2,26.7c-0.5,0-0.9-0.4-0.9-0.9s0.4-0.9,0.9-0.9c0.5,0,0.9,0.4,0.9,0.9
		C47.1,26.4,46.7,26.7,46.2,26.7z M24.5,25.3L21.8,25l2.2-1.5l2.7,0.3C26.7,23.8,24.5,25.3,24.5,25.3z M35.3,23.3l-2.2-0.8l-2.2,0.8
		l2.2,0.8L35.3,23.3z M35.9,23.3l-2.8,1l-2.8-1l2.8-1L35.9,23.3z">
  </path>
 </g>
</svg>